<?xml version="1.0" encoding="UTF-8" standalone="no"?><!DOCTYPE svg PUBLIC "-//W3C//DTD SVG 1.1//EN" "http://www.w3.org/Graphics/SVG/1.1/DTD/svg11.dtd"><svg width="100%" height="100%" viewBox="0 0 1914 1914" version="1.1" xmlns="http://www.w3.org/2000/svg" xmlns:xlink="http://www.w3.org/1999/xlink" xml:space="preserve" xmlns:serif="http://www.serif.com/" style="fill-rule:evenodd;clip-rule:evenodd;stroke-linejoin:round;stroke-miterlimit:2;"><circle cx="956.91" cy="956.91" r="956.91" style="fill:#ffba00;"/><circle cx="956.91" cy="956.91" r="812.282" style="fill:#f2f2f2;"/><g><path d="M1308.05,1439.06c-75.424,0 -909.092,-8.286 -1001.68,-10.715l0,-160.715c110.838,16.072 942.349,10.715 1001.68,10.715c81.864,0 122.795,-42.411 122.795,-127.233c0,-23.661 -5.863,-46.094 -17.591,-67.3c-11.728,-21.205 -28.169,-35.826 -49.325,-43.861c-13.337,-4.911 -31.734,-8.929 -55.189,-12.054c-23.455,-3.125 -47.485,-7.701 -72.09,-13.728c-24.605,-6.027 -48.176,-15.513 -70.711,-28.46c-86.462,-50 -129.694,-129.018 -129.694,-237.055c0,-77.232 25.41,-142.188 76.23,-194.867c50.82,-52.678 116.011,-79.018 195.575,-79.018c62.088,0 147.17,5.581 255.248,16.741l0,161.385c-111.757,-11.607 -196.84,-17.411 -255.248,-17.411c-17.476,0 -32.768,3.795 -45.875,11.384c-13.108,7.59 -23.111,17.411 -30.009,29.465c-6.899,12.053 -11.843,24.33 -14.832,36.83c-2.99,12.5 -4.484,24.777 -4.484,36.831c0,52.679 18.396,87.054 55.188,103.125c11.958,5.357 39.207,11.273 81.749,17.746c42.541,6.473 76.919,16.406 103.134,29.799c36.792,18.304 67.146,41.965 91.061,70.983c23.916,29.018 40.472,58.259 49.67,87.723c9.198,29.465 13.798,60.045 13.798,91.742c0,86.607 -27.595,156.251 -82.784,208.929c-55.189,52.679 -127.394,79.019 -216.616,79.019Z" style="fill:#65a573;fill-rule:nonzero;"/><path d="M545.064,485.479c148.09,0 255.938,52.903 323.544,158.707c26.215,40.178 43.921,85.714 53.12,136.607c9.198,50.894 13.797,109.599 13.797,176.117c0,66.519 -4.599,125.224 -13.797,176.117c-9.199,50.893 -26.905,96.429 -53.12,136.608c-67.606,105.804 -175.454,158.706 -323.544,158.706l-238.692,0l0,-942.862l238.692,0Zm174.535,696.433c26.214,-42.858 39.322,-117.858 39.322,-225.002c0,-107.143 -13.108,-182.143 -39.322,-225.001c-34.493,-57.143 -87.843,-85.714 -160.048,-85.714l-76.575,0l0,621.431l76.575,0c72.205,0 125.555,-28.571 160.048,-85.714Z" style="fill:#be4c4c;fill-rule:nonzero;"/></g></svg>